<svg clip-rule="evenodd" fill-rule="evenodd" stroke-linejoin="round" stroke-miterlimit="2" viewBox="0 0 401 199" xmlns="http://www.w3.org/2000/svg"><g transform="translate(-824.186 -440.826)"><path d="m1113.88 622.716c-15.69 10.401-34.5 16.458-54.71 16.458-54.73 0-99.17-44.438-99.17-99.174s44.44-99.174 99.17-99.174c54.74 0 99.18 44.438 99.18 99.174 0 20.208-6.06 39.013-16.46 54.702l16.46 16.459-28.01 28.013zm-.98-57.002c3.74-7.785 5.83-16.507 5.83-25.714 0-32.871-26.68-59.557-59.56-59.557-32.87 0-59.553 26.686-59.553 59.557s26.683 59.557 59.553 59.557c9.21 0 17.93-2.093 25.72-5.83l-24.68-24.68 28.01-28.013z" fill="#fff"/><path d="m906.351 480.443h-82.165v-39.617h125.618v39.617h-.065l.065.029-71.643 158.7-43.466-.001z" fill="#fff"/><path d="m1224.35 478.676c-14.7 0-26.64 11.934-26.64 26.633-2.76 0-5.61-.001-5.61-.001v-32.24h32.25zm-64.49-11.216c14.7 0 26.64-11.935 26.64-26.634 2.75 0 5.6.001 5.6.001v32.24h-32.24z" fill="#4bffc0" fill-rule="nonzero"/></g></svg>